<svg width="260" height="260" fill="none" xmlns="http://www.w3.org/2000/svg"><path d="M90.134 109.642 114.408 80h31.86l-40.963 48.243 40.963 50.059h-28.826l-27.308-32.213-27.309 32.213H34l40.963-50.059L34 80h31.86l24.274 29.642ZM179.692 80v98.302h-24.274V80h24.274Z" fill="#101010"/><path d="M206.581 180.721c-5.361 0-9.912-1.865-13.654-5.595-3.743-3.731-5.614-8.268-5.614-13.611 0-3.529.86-6.755 2.579-9.679a19.214 19.214 0 0 1 6.979-6.957c2.933-1.815 6.17-2.722 9.71-2.722 3.439 0 6.625.907 9.558 2.722 3.034 1.714 5.411 4.083 7.13 7.108 1.821 2.924 2.731 6.1 2.731 9.528 0 3.528-.91 6.755-2.731 9.679a19.211 19.211 0 0 1-6.979 6.956c-2.933 1.714-6.169 2.571-9.709 2.571Z" fill="#445AFF"/></svg>