<svg width="260" height="260" fill="none" xmlns="http://www.w3.org/2000/svg"><path d="m90.386 110.271 24.274-29.642h31.86l-40.963 48.244 40.963 50.058h-28.826l-27.308-32.213-27.309 32.213H34.252l40.962-50.058L34.252 80.63h31.86l24.274 29.641ZM179.944 80.63v98.301H155.67V80.629h24.274ZM206.833 181.351c-5.361 0-9.912-1.865-13.655-5.596-3.742-3.73-5.613-8.267-5.613-13.611 0-3.529.86-6.755 2.579-9.679a19.211 19.211 0 0 1 6.979-6.956c2.933-1.815 6.17-2.723 9.71-2.723 3.438 0 6.624.908 9.558 2.723 3.034 1.714 5.411 4.083 7.13 7.108 1.821 2.923 2.731 6.099 2.731 9.527 0 3.529-.91 6.755-2.731 9.679a19.206 19.206 0 0 1-6.979 6.957c-2.933 1.714-6.169 2.571-9.709 2.571Z" fill="#fff"/></svg>