<svg xmlns="http://www.w3.org/2000/svg" width="135" height="16" fill="none"><path fill="#101010" d="M8.69 4.974 12.448.375h4.932L11.04 7.86l6.341 7.766h-4.462L8.69 10.628l-4.227 4.997H0l6.341-7.766L0 .375h4.932L8.69 4.974ZM22.555.375v15.25h-3.758V.375h3.758ZM40.646.375v3.52H28.668v2.463h10.334v3.284H28.668v2.464h11.978v3.519H24.91V.375h15.736ZM58.027.375v3.52H46.754v2.463h9.16v3.284h-9.16v5.983h-3.758V.375h15.031ZM75.402.375v3.52H64.128v2.463h9.16v3.284h-9.16v5.983H60.37V.375h15.032ZM93.481.375v3.52H81.503v2.463h10.334v3.284H81.503v2.464h11.978v3.519H77.745V.375h15.736ZM104.403 16c-1.754 0-3.335-.313-4.745-.938-1.393-.626-2.497-1.541-3.311-2.745-.814-1.22-1.221-2.66-1.221-4.317 0-1.658.407-3.089 1.22-4.293.815-1.22 1.919-2.143 3.313-2.769 1.409-.625 2.99-.938 4.744-.938 2.114 0 3.977.446 5.59 1.337 1.628.876 2.709 2.104 3.241 3.684l-3.57.633c-.172-.547-.454-.97-.846-1.267-.375-.313-.916-.532-1.62-.657-.689-.14-1.621-.21-2.795-.21-1.91 0-3.312.359-4.204 1.078-.877.704-1.316 1.838-1.316 3.402s.439 2.706 1.316 3.425c.892.704 2.294 1.056 4.204 1.056 1.174 0 2.106-.063 2.795-.188.704-.14 1.245-.36 1.62-.657.392-.312.674-.742.846-1.29l3.57.633c-.532 1.58-1.613 2.816-3.241 3.707-1.613.876-3.476 1.314-5.59 1.314ZM130.615 3.894h-6.458v11.73h-3.758V3.895h-6.459V.375h16.675v3.52Z"/><path fill="#445AFF" d="M131.494 16c-.83 0-1.535-.29-2.114-.868a2.874 2.874 0 0 1-.869-2.111c0-.548.133-1.048.399-1.502a2.97 2.97 0 0 1 1.081-1.08 2.796 2.796 0 0 1 1.503-.421c.532 0 1.025.14 1.479.422.47.266.838.633 1.104 1.103.282.453.423.946.423 1.478 0 .547-.141 1.047-.423 1.501a2.975 2.975 0 0 1-1.08 1.08 2.92 2.92 0 0 1-1.503.398Z"/></svg>