<svg width="90" height="13" viewBox="0 0 90 13" fill="none" xmlns="http://www.w3.org/2000/svg">
<path d="M0 12.7955L3.27435 8.33159L0.220552 4.00393H3.08773L4.02083 5.41809L4.73338 6.55963H4.86911L5.59862 5.41809L6.54869 4.00393H9.17835L6.12456 8.19528L9.3989 12.7955H6.51476L5.412 11.1429L4.64855 9.96723H4.51283L3.76635 11.1429L2.64662 12.7955H0Z" fill="#445AFF"/>
<path d="M15.415 2.87942C14.8495 2.87942 14.4537 2.76584 14.2275 2.53866C14.0126 2.30013 13.9051 2.01616 13.9051 1.68676V1.19266C13.9051 0.8519 14.0126 0.567934 14.2275 0.340761C14.4537 0.113587 14.8495 0 15.415 0C15.9806 0 16.3708 0.113587 16.5857 0.340761C16.8119 0.567934 16.925 0.8519 16.925 1.19266V1.68676C16.925 2.01616 16.8119 2.30013 16.5857 2.53866C16.3708 2.76584 15.9806 2.87942 15.415 2.87942ZM11.3772 10.8362H14.1596V5.9633H11.3772V4.00393H16.6705V10.8362H19.2492V12.7955H11.3772V10.8362Z" fill="#445AFF"/>
<path d="M25.0448 13C24.4115 13 23.9534 12.8637 23.6706 12.5911C23.3992 12.3071 23.2634 11.972 23.2634 11.5858V10.9895C23.2634 10.6033 23.3992 10.2739 23.6706 10.0013C23.9534 9.71734 24.4115 9.57536 25.0448 9.57536C25.6782 9.57536 26.1306 9.71734 26.4021 10.0013C26.6848 10.2739 26.8262 10.6033 26.8262 10.9895V11.5858C26.8262 11.972 26.6848 12.3071 26.4021 12.5911C26.1306 12.8637 25.6782 13 25.0448 13Z" fill="#445AFF"/>
<path d="M35.455 13C33.9847 13 32.8706 12.5911 32.1128 11.7733C31.355 10.9554 30.9761 9.84229 30.9761 8.43381C30.9761 7.71822 31.0723 7.07645 31.2646 6.50852C31.4681 5.92923 31.7509 5.4408 32.1128 5.04325C32.4861 4.63434 32.9328 4.32765 33.4531 4.1232C33.9847 3.90738 34.5785 3.79948 35.2345 3.79948C35.8905 3.79948 36.4786 3.90738 36.9989 4.1232C37.5192 4.32765 37.9603 4.62298 38.3222 5.00917C38.6841 5.39537 38.9612 5.86676 39.1535 6.42333C39.3571 6.96855 39.4589 7.58191 39.4589 8.26343V9.01311H33.4701V9.16645C33.4701 9.73438 33.6454 10.1944 33.996 10.5465C34.3466 10.8873 34.8612 11.0577 35.5399 11.0577C36.0601 11.0577 36.5069 10.9611 36.8801 10.768C37.2534 10.5636 37.5757 10.2966 37.8472 9.96723L39.2044 11.4495C38.8651 11.8698 38.3901 12.2333 37.7793 12.54C37.1686 12.8467 36.3938 13 35.455 13ZM35.2514 5.60551C34.7086 5.60551 34.2731 5.77589 33.9451 6.11664C33.6284 6.44605 33.4701 6.89471 33.4701 7.46265V7.59895H36.9989V7.46265C36.9989 6.88336 36.8406 6.42901 36.5239 6.09961C36.2185 5.77021 35.7943 5.60551 35.2514 5.60551Z" fill="black"/>
<path d="M41.5051 10.8362H44.0839V5.9633H41.3354V4.00393H44.0839V2.72608C44.0839 1.97641 44.2988 1.36872 44.7285 0.903015C45.1697 0.42595 45.8483 0.187419 46.7644 0.187419H49.7334V2.14679H46.5948V4.00393H49.7334V5.9633H46.5948V10.8362H49.3432V12.7955H41.5051V10.8362Z" fill="black"/>
<path d="M51.6778 10.8362H54.2565V5.9633H51.5081V4.00393H54.2565V2.72608C54.2565 1.97641 54.4714 1.36872 54.9012 0.903015C55.3423 0.42595 56.021 0.187419 56.9371 0.187419H59.9061V2.14679H56.7674V4.00393H59.9061V5.9633H56.7674V10.8362H59.5159V12.7955H51.6778V10.8362Z" fill="black"/>
<path d="M65.9731 13C64.5028 13 63.3887 12.5911 62.6309 11.7733C61.8731 10.9554 61.4942 9.84229 61.4942 8.43381C61.4942 7.71822 61.5903 7.07645 61.7826 6.50852C61.9862 5.92923 62.269 5.4408 62.6309 5.04325C63.0041 4.63434 63.4509 4.32765 63.9712 4.1232C64.5028 3.90738 65.0965 3.79948 65.7525 3.79948C66.4085 3.79948 66.9967 3.90738 67.517 4.1232C68.0372 4.32765 68.4783 4.62298 68.8403 5.00917C69.2022 5.39537 69.4793 5.86676 69.6716 6.42333C69.8752 6.96855 69.977 7.58191 69.977 8.26343V9.01311H63.9881V9.16645C63.9881 9.73438 64.1634 10.1944 64.5141 10.5465C64.8647 10.8873 65.3793 11.0577 66.0579 11.0577C66.5782 11.0577 67.025 10.9611 67.3982 10.768C67.7714 10.5636 68.0938 10.2966 68.3652 9.96723L69.7225 11.4495C69.3832 11.8698 68.9081 12.2333 68.2974 12.54C67.6866 12.8467 66.9119 13 65.9731 13ZM65.7695 5.60551C65.2266 5.60551 64.7912 5.77589 64.4632 6.11664C64.1465 6.44605 63.9881 6.89471 63.9881 7.46265V7.59895H67.517V7.46265C67.517 6.88336 67.3586 6.42901 67.0419 6.09961C66.7365 5.77021 66.3124 5.60551 65.7695 5.60551Z" fill="black"/>
<path d="M76.2645 13C75.5746 13 74.9526 12.8978 74.3983 12.6933C73.8554 12.4775 73.3917 12.1708 73.0072 11.7733C72.6339 11.3757 72.3455 10.893 72.1419 10.325C71.9383 9.7571 71.8365 9.11533 71.8365 8.39974C71.8365 7.68414 71.9383 7.04238 72.1419 6.47444C72.3455 5.90651 72.6339 5.42377 73.0072 5.02621C73.3917 4.62866 73.8554 4.32765 74.3983 4.1232C74.9526 3.90738 75.569 3.79948 76.2476 3.79948C77.209 3.79948 77.9781 3.99825 78.5549 4.39581C79.143 4.782 79.5898 5.29882 79.8952 5.94627L77.9611 7.00262C77.8028 6.66186 77.5935 6.37789 77.3334 6.15072C77.0845 5.92355 76.7226 5.80996 76.2476 5.80996C75.6708 5.80996 75.224 5.98034 74.9073 6.3211C74.6019 6.6505 74.4492 7.10485 74.4492 7.68414V9.11534C74.4492 9.69463 74.6019 10.1547 74.9073 10.4954C75.224 10.8248 75.6821 10.9895 76.2815 10.9895C76.7679 10.9895 77.1468 10.8759 77.4182 10.6488C77.701 10.4216 77.9385 10.1263 78.1308 9.76278L80.0309 10.8532C79.7142 11.5007 79.2505 12.0232 78.6397 12.4207C78.0403 12.8069 77.2486 13 76.2645 13Z" fill="black"/>
<path d="M86.7596 12.7955C85.8548 12.7955 85.1818 12.557 84.7407 12.0799C84.2996 11.6029 84.079 10.9952 84.079 10.2569V5.9633H81.7039V4.00393H83.2477C83.621 4.00393 83.8868 3.9301 84.0451 3.78244C84.2034 3.63477 84.2826 3.36217 84.2826 2.96461V0.903015H86.5899V4.00393H90V5.9633H86.5899V10.8362H90V12.7955H86.7596Z" fill="black"/>
</svg>
