<svg width="142" height="24" viewBox="0 0 142 24" fill="none" xmlns="http://www.w3.org/2000/svg">
<path d="M14 19.7484L18.1475 14.2543L14.2794 8.92792H17.9111L19.0931 10.6684L19.9956 12.0734H20.1675L21.0916 10.6684L22.295 8.92792H25.6259L21.7578 14.0865L25.9053 19.7484H22.252L20.8552 17.7143L19.8882 16.2674H19.7163L18.7707 17.7143L17.3524 19.7484H14Z" fill="#445AFF"/>
<path d="M33.5257 7.54391C32.8094 7.54391 32.308 7.40411 32.0214 7.12451C31.7492 6.83093 31.6131 6.48143 31.6131 6.07602V5.46789C31.6131 5.04849 31.7492 4.699 32.0214 4.4194C32.308 4.1398 32.8094 4 33.5257 4C34.242 4 34.7363 4.1398 35.0085 4.4194C35.295 4.699 35.4383 5.04849 35.4383 5.46789V6.07602C35.4383 6.48143 35.295 6.83093 35.0085 7.12451C34.7363 7.40411 34.242 7.54391 33.5257 7.54391ZM28.4112 17.3368H31.9355V11.3394H28.4112V8.92792H35.1159V17.3368H38.3824V19.7484H28.4112V17.3368Z" fill="#445AFF"/>
<path d="M45.7235 20C44.9212 20 44.341 19.8322 43.9828 19.4967C43.639 19.1472 43.467 18.7348 43.467 18.2595V17.5256C43.467 17.0502 43.639 16.6448 43.9828 16.3093C44.341 15.9598 44.9212 15.7851 45.7235 15.7851C46.5257 15.7851 47.0988 15.9598 47.4426 16.3093C47.8008 16.6448 47.9799 17.0502 47.9799 17.5256V18.2595C47.9799 18.7348 47.8008 19.1472 47.4426 19.4967C47.0988 19.8322 46.5257 20 45.7235 20Z" fill="#445AFF"/>
<path d="M58.9097 20C57.0473 20 55.6361 19.4967 54.6762 18.4902C53.7164 17.4836 53.2364 16.1136 53.2364 14.3801C53.2364 13.4993 53.3582 12.7095 53.6018 12.0105C53.8596 11.2975 54.2178 10.6964 54.6762 10.2071C55.149 9.7038 55.7149 9.32634 56.3739 9.07471C57.0473 8.80909 57.7994 8.67628 58.6303 8.67628C59.4613 8.67628 60.2063 8.80909 60.8653 9.07471C61.5243 9.32634 62.083 9.68982 62.5415 10.1651C62.9999 10.6405 63.3509 11.2206 63.5945 11.9056C63.8523 12.5767 63.9813 13.3316 63.9813 14.1704V15.0931H56.3954V15.2818C56.3954 15.9808 56.6175 16.547 57.0616 16.9803C57.5057 17.3997 58.1576 17.6094 59.0172 17.6094C59.6762 17.6094 60.2421 17.4906 60.7148 17.2529C61.1876 17.0013 61.5959 16.6728 61.9398 16.2674L63.6589 18.0917C63.2291 18.609 62.6274 19.0564 61.8538 19.4338C61.0802 19.8113 60.0988 20 58.9097 20ZM58.6518 10.8991C57.9642 10.8991 57.4126 11.1088 56.9971 11.5282C56.596 11.9336 56.3954 12.4858 56.3954 13.1848V13.3526H60.8653V13.1848C60.8653 12.4718 60.6647 11.9126 60.2636 11.5072C59.8767 11.1018 59.3395 10.8991 58.6518 10.8991Z" fill="black"/>
<path d="M66.5731 17.3368H69.8396V11.3394H66.3582V8.92792H69.8396V7.35518C69.8396 6.4325 70.1118 5.68458 70.6562 5.1114C71.2149 4.52425 72.0745 4.23067 73.2349 4.23067H76.9956V6.6422H73.02V8.92792H76.9956V11.3394H73.02V17.3368H76.5014V19.7484H66.5731V17.3368Z" fill="black"/>
<path d="M79.4585 17.3368H82.725V11.3394H79.2436V8.92792H82.725V7.35518C82.725 6.4325 82.9972 5.68458 83.5416 5.1114C84.1003 4.52425 84.9599 4.23067 86.1203 4.23067H89.881V6.6422H85.9054V8.92792H89.881V11.3394H85.9054V17.3368H89.3868V19.7484H79.4585V17.3368Z" fill="black"/>
<path d="M97.5659 20C95.7035 20 94.2923 19.4967 93.3325 18.4902C92.3726 17.4836 91.8927 16.1136 91.8927 14.3801C91.8927 13.4993 92.0144 12.7095 92.258 12.0105C92.5159 11.2975 92.874 10.6964 93.3325 10.2071C93.8052 9.7038 94.3711 9.32634 95.0301 9.07471C95.7035 8.80909 96.4556 8.67628 97.2866 8.67628C98.1175 8.67628 98.8625 8.80909 99.5215 9.07471C100.181 9.32634 100.739 9.68982 101.198 10.1651C101.656 10.6405 102.007 11.2206 102.251 11.9056C102.509 12.5767 102.637 13.3316 102.637 14.1704V15.0931H95.0516V15.2818C95.0516 15.9808 95.2737 16.547 95.7178 16.9803C96.1619 17.3997 96.8138 17.6094 97.6734 17.6094C98.3324 17.6094 98.8983 17.4906 99.3711 17.2529C99.8438 17.0013 100.252 16.6728 100.596 16.2674L102.315 18.0917C101.885 18.609 101.284 19.0564 100.51 19.4338C99.7364 19.8113 98.755 20 97.5659 20ZM97.3081 10.8991C96.6204 10.8991 96.0688 11.1088 95.6533 11.5282C95.2522 11.9336 95.0516 12.4858 95.0516 13.1848V13.3526H99.5215V13.1848C99.5215 12.4718 99.3209 11.9126 98.9198 11.5072C98.533 11.1018 97.9957 10.8991 97.3081 10.8991Z" fill="black"/>
<path d="M110.602 20C109.728 20 108.94 19.8742 108.238 19.6225C107.55 19.3569 106.963 18.9795 106.476 18.4902C106.003 18.0009 105.638 17.4067 105.38 16.7077C105.122 16.0087 104.993 15.2189 104.993 14.3381C104.993 13.4574 105.122 12.6675 105.38 11.9685C105.638 11.2695 106.003 10.6754 106.476 10.1861C106.963 9.69681 107.55 9.32634 108.238 9.07471C108.94 8.80909 109.721 8.67628 110.58 8.67628C111.798 8.67628 112.772 8.92093 113.503 9.41022C114.248 9.88554 114.814 10.5216 115.201 11.3185L112.751 12.6186C112.55 12.1992 112.285 11.8497 111.956 11.5701C111.64 11.2905 111.182 11.1507 110.58 11.1507C109.85 11.1507 109.284 11.3604 108.883 11.7798C108.496 12.1852 108.302 12.7444 108.302 13.4574V15.2189C108.302 15.9318 108.496 16.498 108.883 16.9174C109.284 17.3228 109.864 17.5256 110.623 17.5256C111.239 17.5256 111.719 17.3858 112.063 17.1062C112.421 16.8266 112.722 16.4631 112.966 16.0157L115.372 17.3578C114.971 18.1547 114.384 18.7977 113.61 19.287C112.851 19.7623 111.848 20 110.602 20Z" fill="black"/>
<path d="M123.895 19.7484C122.749 19.7484 121.897 19.4548 121.338 18.8676C120.779 18.2805 120.5 17.5325 120.5 16.6239V11.3394H117.492V8.92792H119.447C119.92 8.92792 120.257 8.83705 120.457 8.65531C120.658 8.47357 120.758 8.13805 120.758 7.64876V5.1114H123.681V8.92792H128V11.3394H123.681V17.3368H128V19.7484H123.895Z" fill="black"/>
</svg>
