<svg width="24" height="24" viewBox="0 0 24 24" fill="none" xmlns="http://www.w3.org/2000/svg">
<path d="M8 7C8 6.44772 8.44772 6 9 6H15C15.5523 6 16 6.44772 16 7C16 7.55228 15.5523 8 15 8H9C8.44772 8 8 7.55228 8 7Z" fill="#101010"/>
<path d="M9 10C8.44772 10 8 10.4477 8 11C8 11.5523 8.44772 12 9 12H15C15.5523 12 16 11.5523 16 11C16 10.4477 15.5523 10 15 10H9Z" fill="#101010"/>
<path fill-rule="evenodd" clip-rule="evenodd" d="M8 2C5.79086 2 4 3.79086 4 6V18C4 19.1046 4.89543 20 6 20H16C17.1046 20 18 19.1046 18 18V16.4649C19.1956 15.7733 20 14.4806 20 13V6C20 3.79086 18.2091 2 16 2H8ZM16 17H8C7.44772 17 7 17.4477 7 18H16V17ZM6 15.7639C6.53076 15.2889 7.23165 15 8 15H16C17.1046 15 18 14.1046 18 13V6C18 4.89543 17.1046 4 16 4H8C6.89543 4 6 4.89543 6 6V15.7639Z" fill="#101010"/>
</svg>
