<svg width="236" height="92" viewBox="0 0 236 92" fill="none" xmlns="http://www.w3.org/2000/svg">
<rect width="236" height="92" rx="8" fill="white"/>
<rect x="8" y="8" width="220" height="36" rx="4" fill="white"/>
<rect x="20" y="18" width="16" height="16" rx="8" fill="#445AFF"/>
<path d="M49.9787 31H48.348L52.0121 20.8182H53.7869L57.451 31H55.8203L52.9418 22.6676H52.8622L49.9787 31ZM50.2521 27.0128H55.5419V28.3054H50.2521V27.0128ZM58.0563 33.2024V29.7124H58.6777C58.8368 29.5665 58.9711 29.3925 59.0804 29.1903C59.1931 28.9882 59.2876 28.7479 59.3638 28.4695C59.4434 28.1911 59.5096 27.8662 59.5627 27.495C59.6157 27.1205 59.6621 26.6929 59.7019 26.2124L59.9405 23.3636H65.1309V29.7124H66.3042V33.2024H64.8525V31H59.5279V33.2024H58.0563ZM60.2686 29.7124H63.6792V24.6364H61.2729L61.1138 26.2124C61.0376 27.0144 60.9415 27.7105 60.8255 28.3004C60.7095 28.8871 60.5239 29.3577 60.2686 29.7124ZM72.0426 29.1605L74.5085 23.3636H75.7912L72.5945 31H71.4908L68.3587 23.3636H69.6264L72.0426 29.1605ZM69.2138 23.3636V31H67.7571V23.3636H69.2138ZM74.9112 31V23.3636H76.358V31H74.9112ZM79.7958 28.9169L83.1616 23.3636H84.7624V31H83.3058V25.4418L79.9549 31H78.3391V23.3636H79.7958V28.9169ZM91.9364 26.5405V27.8281H87.8001V26.5405H91.9364ZM88.2177 23.3636V31H86.761V23.3636H88.2177ZM92.9755 23.3636V31H91.5238V23.3636H92.9755ZM96.4208 28.9169L99.7866 23.3636H101.387V31H99.9308V25.4418L96.5799 31H94.9641V23.3636H96.4208V28.9169ZM106.603 31.1541C105.864 31.1541 105.227 30.9867 104.694 30.652C104.163 30.3139 103.756 29.8482 103.471 29.255C103.185 28.6617 103.043 27.9822 103.043 27.2166C103.043 26.4411 103.189 25.7566 103.48 25.1634C103.772 24.5668 104.183 24.1011 104.713 23.7663C105.244 23.4316 105.868 23.2642 106.588 23.2642C107.168 23.2642 107.685 23.3719 108.139 23.5874C108.593 23.7995 108.959 24.0978 109.238 24.4822C109.519 24.8667 109.687 25.3158 109.74 25.8295H108.293C108.213 25.4716 108.031 25.1634 107.746 24.9048C107.464 24.6463 107.087 24.517 106.613 24.517C106.198 24.517 105.835 24.6264 105.524 24.8452C105.216 25.0606 104.975 25.3688 104.803 25.7699C104.631 26.1676 104.544 26.6383 104.544 27.1818C104.544 27.7386 104.629 28.2192 104.798 28.6236C104.967 29.0279 105.206 29.3411 105.514 29.5632C105.825 29.7853 106.192 29.8963 106.613 29.8963C106.894 29.8963 107.15 29.8449 107.378 29.7422C107.61 29.6361 107.804 29.4853 107.96 29.2898C108.119 29.0942 108.23 28.8589 108.293 28.5838H109.74C109.687 29.0777 109.526 29.5185 109.257 29.9062C108.989 30.294 108.629 30.599 108.179 30.821C107.731 31.0431 107.206 31.1541 106.603 31.1541ZM110.751 24.6463V23.3636H117.195V24.6463H114.704V31H113.252V24.6463H110.751ZM118.767 33.8636V23.3636H120.219V24.6016H120.343C120.429 24.4425 120.553 24.2585 120.716 24.0497C120.878 23.8409 121.104 23.6586 121.392 23.5028C121.68 23.3438 122.061 23.2642 122.535 23.2642C123.152 23.2642 123.702 23.42 124.186 23.7315C124.67 24.0431 125.049 24.4922 125.324 25.0788C125.603 25.6655 125.742 26.3714 125.742 27.1967C125.742 28.022 125.604 28.7296 125.329 29.3196C125.054 29.9062 124.676 30.3587 124.196 30.6768C123.715 30.9917 123.167 31.1491 122.55 31.1491C122.086 31.1491 121.707 31.0713 121.412 30.9155C121.12 30.7597 120.891 30.5774 120.726 30.3686C120.56 30.1598 120.432 29.9742 120.343 29.8118H120.253V33.8636H118.767ZM120.224 27.1818C120.224 27.7187 120.301 28.1894 120.457 28.5938C120.613 28.9981 120.838 29.3146 121.133 29.5433C121.428 29.7687 121.79 29.8814 122.217 29.8814C122.661 29.8814 123.032 29.7637 123.331 29.5284C123.629 29.2898 123.854 28.9666 124.007 28.5589C124.163 28.1513 124.241 27.6922 124.241 27.1818C124.241 26.678 124.164 26.2256 124.012 25.8246C123.863 25.4235 123.637 25.107 123.336 24.875C123.037 24.643 122.665 24.527 122.217 24.527C121.786 24.527 121.422 24.638 121.123 24.8601C120.828 25.0821 120.605 25.392 120.452 25.7898C120.3 26.1875 120.224 26.6515 120.224 27.1818ZM129.63 31.169C129.146 31.169 128.708 31.0795 128.317 30.9006C127.926 30.7183 127.616 30.4548 127.388 30.1101C127.162 29.7654 127.05 29.3428 127.05 28.8423C127.05 28.4115 127.132 28.0568 127.298 27.7784C127.464 27.5 127.688 27.2796 127.969 27.1172C128.251 26.9548 128.566 26.8321 128.914 26.7493C129.262 26.6664 129.617 26.6035 129.978 26.5604C130.435 26.5073 130.806 26.4643 131.091 26.4311C131.376 26.3946 131.584 26.3366 131.713 26.2571C131.842 26.1776 131.907 26.0483 131.907 25.8693V25.8345C131.907 25.4003 131.784 25.0639 131.539 24.8253C131.297 24.5866 130.936 24.4673 130.455 24.4673C129.955 24.4673 129.56 24.5784 129.272 24.8004C128.987 25.0192 128.79 25.2628 128.68 25.5312L127.283 25.2131C127.449 24.7491 127.691 24.3745 128.009 24.0895C128.331 23.8011 128.7 23.5923 129.118 23.4631C129.535 23.3305 129.974 23.2642 130.435 23.2642C130.74 23.2642 131.063 23.3007 131.405 23.3736C131.749 23.4432 132.071 23.5724 132.369 23.7614C132.671 23.9503 132.918 24.2204 133.11 24.5717C133.302 24.9197 133.398 25.3722 133.398 25.929V31H131.947V29.956H131.887C131.791 30.1482 131.647 30.3371 131.454 30.5227C131.262 30.7083 131.015 30.8625 130.714 30.9851C130.412 31.1077 130.051 31.169 129.63 31.169ZM129.953 29.9759C130.364 29.9759 130.715 29.8946 131.007 29.7322C131.302 29.5698 131.526 29.3577 131.678 29.0959C131.834 28.8307 131.912 28.5473 131.912 28.2457V27.2614C131.859 27.3144 131.756 27.3641 131.604 27.4105C131.454 27.4536 131.284 27.4917 131.091 27.5249C130.899 27.5547 130.712 27.5829 130.53 27.6094C130.347 27.6326 130.195 27.6525 130.072 27.669C129.784 27.7055 129.52 27.7668 129.282 27.853C129.046 27.9392 128.858 28.0634 128.715 28.2259C128.576 28.3849 128.506 28.5971 128.506 28.8622C128.506 29.2301 128.642 29.5085 128.914 29.6974C129.186 29.883 129.532 29.9759 129.953 29.9759ZM134.431 24.6463V23.3636H140.874V24.6463H138.384V31H136.932V24.6463H134.431ZM145.308 31.1541C144.592 31.1541 143.967 30.9901 143.433 30.6619C142.9 30.3338 142.485 29.8748 142.191 29.2848C141.896 28.6948 141.748 28.0054 141.748 27.2166C141.748 26.4245 141.896 25.7318 142.191 25.1385C142.485 24.5452 142.9 24.0845 143.433 23.7564C143.967 23.4283 144.592 23.2642 145.308 23.2642C146.024 23.2642 146.648 23.4283 147.182 23.7564C147.716 24.0845 148.13 24.5452 148.425 25.1385C148.72 25.7318 148.867 26.4245 148.867 27.2166C148.867 28.0054 148.72 28.6948 148.425 29.2848C148.13 29.8748 147.716 30.3338 147.182 30.6619C146.648 30.9901 146.024 31.1541 145.308 31.1541ZM145.313 29.9062C145.777 29.9062 146.161 29.7836 146.466 29.5384C146.771 29.2931 146.996 28.9666 147.142 28.5589C147.291 28.1513 147.366 27.7022 147.366 27.2116C147.366 26.7244 147.291 26.277 147.142 25.8693C146.996 25.4583 146.771 25.1286 146.466 24.88C146.161 24.6314 145.777 24.5071 145.313 24.5071C144.845 24.5071 144.458 24.6314 144.149 24.88C143.844 25.1286 143.617 25.4583 143.468 25.8693C143.322 26.277 143.249 26.7244 143.249 27.2116C143.249 27.7022 143.322 28.1513 143.468 28.5589C143.617 28.9666 143.844 29.2931 144.149 29.5384C144.458 29.7836 144.845 29.9062 145.313 29.9062ZM150.527 33.8636V23.3636H151.978V24.6016H152.103C152.189 24.4425 152.313 24.2585 152.475 24.0497C152.638 23.8409 152.863 23.6586 153.152 23.5028C153.44 23.3438 153.821 23.2642 154.295 23.2642C154.912 23.2642 155.462 23.42 155.946 23.7315C156.43 24.0431 156.809 24.4922 157.084 25.0788C157.363 25.6655 157.502 26.3714 157.502 27.1967C157.502 28.022 157.364 28.7296 157.089 29.3196C156.814 29.9062 156.436 30.3587 155.956 30.6768C155.475 30.9917 154.926 31.1491 154.31 31.1491C153.846 31.1491 153.467 31.0713 153.172 30.9155C152.88 30.7597 152.651 30.5774 152.485 30.3686C152.32 30.1598 152.192 29.9742 152.103 29.8118H152.013V33.8636H150.527ZM151.983 27.1818C151.983 27.7187 152.061 28.1894 152.217 28.5938C152.373 28.9981 152.598 29.3146 152.893 29.5433C153.188 29.7687 153.549 29.8814 153.977 29.8814C154.421 29.8814 154.792 29.7637 155.091 29.5284C155.389 29.2898 155.614 28.9666 155.767 28.5589C155.922 28.1513 156 27.6922 156 27.1818C156 26.678 155.924 26.2256 155.772 25.8246C155.623 25.4235 155.397 25.107 155.096 24.875C154.797 24.643 154.424 24.527 153.977 24.527C153.546 24.527 153.181 24.638 152.883 24.8601C152.588 25.0821 152.364 25.392 152.212 25.7898C152.06 26.1875 151.983 26.6515 151.983 27.1818Z" fill="#101010"/>
<rect x="8" y="48" width="220" height="36" rx="4" fill="white"/>
<rect x="20" y="58" width="16" height="16" rx="8" fill="#00A82C"/>
<path d="M57.5753 64.1293H56.0241C55.9645 63.7978 55.8535 63.5062 55.6911 63.2543C55.5286 63.0024 55.3298 62.7886 55.0945 62.6129C54.8591 62.4373 54.5956 62.3047 54.304 62.2152C54.0156 62.1257 53.709 62.081 53.3842 62.081C52.7976 62.081 52.2723 62.2285 51.8082 62.5234C51.3475 62.8184 50.983 63.2509 50.7145 63.821C50.4493 64.3911 50.3168 65.0871 50.3168 65.9091C50.3168 66.7377 50.4493 67.437 50.7145 68.0071C50.983 68.5772 51.3492 69.008 51.8132 69.2997C52.2772 69.5914 52.7992 69.7372 53.3793 69.7372C53.7008 69.7372 54.0057 69.6941 54.294 69.608C54.5857 69.5185 54.8492 69.3875 55.0845 69.2152C55.3198 69.0429 55.5187 68.8324 55.6811 68.5838C55.8468 68.3319 55.9612 68.0436 56.0241 67.7188L57.5753 67.7237C57.4924 68.2242 57.3317 68.6849 57.093 69.1058C56.8577 69.5234 56.5545 69.8847 56.1832 70.1896C55.8153 70.4912 55.3944 70.7249 54.9205 70.8906C54.4465 71.0563 53.9295 71.1392 53.3693 71.1392C52.4877 71.1392 51.7022 70.9304 51.0128 70.5128C50.3234 70.0919 49.7798 69.4903 49.3821 68.7081C48.9877 67.9259 48.7905 66.9929 48.7905 65.9091C48.7905 64.822 48.9893 63.889 49.3871 63.1101C49.7848 62.3279 50.3284 61.728 51.0178 61.3104C51.7071 60.8894 52.491 60.679 53.3693 60.679C53.9096 60.679 54.4134 60.7569 54.8807 60.9126C55.3513 61.0651 55.7739 61.2905 56.1484 61.5888C56.523 61.8838 56.8329 62.245 57.0781 62.6726C57.3234 63.0968 57.4891 63.5824 57.5753 64.1293ZM58.8667 64.6463V63.3636H65.3098V64.6463H62.8191V71H61.3674V64.6463H58.8667ZM67.8217 73.8636C67.5997 73.8636 67.3975 73.8454 67.2152 73.8089C67.0329 73.7758 66.897 73.7393 66.8075 73.6996L67.1655 72.4815C67.4373 72.5545 67.6792 72.5859 67.8913 72.576C68.1035 72.5661 68.2907 72.4865 68.4531 72.3374C68.6188 72.1882 68.7647 71.9446 68.8906 71.6065L69.0746 71.0994L66.2805 63.3636H67.8714L69.8054 69.2898H69.8849L71.8189 63.3636H73.4148L70.2678 72.0192C70.1219 72.4169 69.9363 72.7533 69.7109 73.0284C69.4856 73.3068 69.2171 73.5156 68.9055 73.6548C68.594 73.794 68.2327 73.8636 67.8217 73.8636ZM73.4371 73.2024V69.7124H74.0586C74.2177 69.5665 74.3519 69.3925 74.4613 69.1903C74.574 68.9882 74.6684 68.7479 74.7447 68.4695C74.8242 68.1911 74.8905 67.8662 74.9435 67.495C74.9966 67.1205 75.043 66.6929 75.0827 66.2124L75.3214 63.3636H80.5117V69.7124H81.685V73.2024H80.2333V71H74.9087V73.2024H73.4371ZM75.6495 69.7124H79.06V64.6364H76.6538L76.4947 66.2124C76.4184 67.0144 76.3223 67.7105 76.2063 68.3004C76.0903 68.8871 75.9047 69.3577 75.6495 69.7124ZM86.4292 71.1541C85.6768 71.1541 85.0288 70.9934 84.4853 70.6719C83.945 70.3471 83.5274 69.8913 83.2324 69.3047C82.9408 68.7147 82.7949 68.0237 82.7949 67.2315C82.7949 66.4493 82.9408 65.7599 83.2324 65.1634C83.5274 64.5668 83.9384 64.1011 84.4654 63.7663C84.9957 63.4316 85.6155 63.2642 86.3248 63.2642C86.7556 63.2642 87.1732 63.3355 87.5776 63.478C87.9819 63.6205 88.3449 63.8442 88.6664 64.1491C88.9879 64.4541 89.2414 64.8501 89.427 65.3374C89.6126 65.8213 89.7054 66.4096 89.7054 67.1023V67.6293H83.6351V66.5156H88.2488C88.2488 66.1245 88.1692 65.7782 88.0101 65.4766C87.851 65.1716 87.6273 64.9313 87.339 64.7557C87.0539 64.58 86.7192 64.4922 86.3347 64.4922C85.9171 64.4922 85.5525 64.5949 85.2409 64.8004C84.9327 65.0026 84.6941 65.2678 84.525 65.5959C84.3593 65.9207 84.2765 66.2737 84.2765 66.6548V67.5249C84.2765 68.0353 84.3659 68.4695 84.5449 68.8274C84.7272 69.1854 84.9808 69.4588 85.3056 69.6477C85.6304 69.8333 86.0099 69.9261 86.4441 69.9261C86.7258 69.9261 86.9827 69.8864 87.2147 69.8068C87.4467 69.724 87.6472 69.6013 87.8162 69.4389C87.9853 69.2765 88.1145 69.076 88.204 68.8374L89.611 69.0909C89.4983 69.5052 89.2961 69.8681 89.0044 70.1797C88.7161 70.4879 88.3532 70.7282 87.9157 70.9006C87.4815 71.0696 86.986 71.1541 86.4292 71.1541ZM96.5302 66.5405V67.8281H92.3938V66.5405H96.5302ZM92.8114 63.3636V71H91.3548V63.3636H92.8114ZM97.5692 63.3636V71H96.1175V63.3636H97.5692ZM98.6108 64.6463V63.3636H105.054V64.6463H102.563V71H101.112V64.6463H98.6108Z" fill="#101010"/>
</svg>
