<svg width="18" height="20" viewBox="0 0 18 20" fill="none" xmlns="http://www.w3.org/2000/svg">
<path d="M14.68 0.0399985H15.12L15.28 0.079998L15.44 0.159999C15.6533 0.239998 15.8533 0.359998 16.04 0.52C16.2533 0.706665 16.4267 0.906665 16.56 1.12L16.68 1.28L16.76 1.52L16.88 2L16.96 2.24L17 2.64L17.04 3V3.96L17 4.6L16.88 5.6C16.6667 6.8 16.4533 7.68 16.24 8.24C15.9467 9.09333 15.6 9.98667 15.2 10.92L14.24 12.68C13.92 13.24 13.5333 13.84 13.08 14.48C12.68 15.04 12.2667 15.5733 11.84 16.08L11.2 16.8L9.8 18.4L9.52 18.72L8.76 19.48L8.72 19.52L8.68 19.48H8.64L8.68 19.44C8.68 19.3867 8.74667 19.2933 8.88 19.16C9.44 18.4933 10.0533 17.6933 10.72 16.76L12.68 13.92L13.08 13.36L13.52 12.52C13.92 11.7467 14.3067 10.9333 14.68 10.08C15.1067 9.01333 15.3867 8.16 15.52 7.52C15.7067 6.61333 15.8533 5.58667 15.96 4.44V3.36L15.92 2.76L15.88 2.52L15.84 2.24L15.8 2.04L15.72 1.84L15.56 1.52L15.4 1.4L15.28 1.28L15.16 1.2L15.08 1.16L14.88 1.12L14.72 1.08L14.32 1.16L14.08 1.28C13.6267 1.46667 13.1067 1.82667 12.52 2.36L12.16 2.64L11.92 2.92C11.5467 3.34667 11.32 3.61333 11.24 3.72C10.92 4.14666 10.7067 4.46666 10.6 4.68L10.28 5.32C10.04 5.96 9.85333 6.61333 9.72 7.28C9.61333 7.70667 9.56 7.96 9.56 8.04L9.48 8.28V8.32L9.64 8.6L9.8 8.92L9.88 9.24V9.6L9.84 9.72L9.76 9.96L9.68 10.08L9.6 10.16L9.48 10.24H9.32L9.24 10.2L8.64 9.76L7.92 9L7.4 8.44L6.92 7.96L6.44 7.52L6.04 7.2C5.48 6.72 4.81333 6.25333 4.04 5.8C3.74667 5.61333 3.44 5.48 3.12 5.4L2.92 5.32L2.68 5.28H2.28C2.25333 5.30667 2.22667 5.32 2.2 5.32C2.14667 5.32 2.10667 5.33333 2.08 5.36C2.05333 5.36 2.01333 5.38667 1.96 5.44L1.88 5.52L1.84 5.68L1.8 5.8V6.44L1.84 6.64L1.96 7.08L2.04 7.32L2.24 7.68C2.61333 8.42666 3.38667 9.53333 4.56 11C4.96 11.4533 5.28 11.88 5.52 12.28C5.62667 12.3867 5.86667 12.72 6.24 13.28L7.04 14.44C7.46667 15 7.84 15.5333 8.16 16.04C8.50667 16.52 8.74667 16.8533 8.88 17.04C8.93333 17.0933 8.90667 17.12 8.8 17.12C8.74667 17.12 8.41333 16.7333 7.8 15.96L6.16 14.32C5.52 13.68 5.2 13.36 5.2 13.36L4.8 12.96L4.56 12.64L4.28 12.28L3.88 11.88C3.34667 11.4 2.78667 10.76 2.2 9.96C1.42667 8.94666 0.906667 8.22666 0.64 7.8C0.453333 7.37333 0.32 6.93333 0.24 6.48L0.2 6.28V5.76L0.28 5.28L0.32 5.08L0.52 4.72L0.6 4.52L0.84 4.32L1.04 4.08L1.24 4L1.6 3.84L1.8 3.76L2.04 3.72L2.32 3.68H2.68L3 3.72L3.24 3.76C3.64 3.84 4.06667 3.97333 4.52 4.16C5.02667 4.4 5.62667 4.76 6.32 5.24C7.04 5.77333 7.62667 6.28 8.08 6.76C8.4 7.10666 8.58667 7.26667 8.64 7.24L8.72 6.84C8.77333 6.38667 8.89333 5.90667 9.08 5.4C9.24 4.92 9.4 4.53333 9.56 4.24L10.16 3.28C10.24 3.17333 10.4533 2.90667 10.8 2.48C11.4667 1.73333 12.2133 1.10666 13.04 0.599998C13.44 0.333332 13.8533 0.146665 14.28 0.0399985H14.68Z" fill="#DD0D0C"/>
</svg>
