<svg width="24" height="24" viewBox="0 0 24 24" fill="none" xmlns="http://www.w3.org/2000/svg">
<path fill-rule="evenodd" clip-rule="evenodd" d="M2.3744 11.39C7.74118 9.0518 11.3199 7.51031 13.1105 6.76553C18.223 4.63904 19.2854 4.26965 19.9778 4.25745C20.1301 4.25477 20.4706 4.29251 20.6912 4.47149C21.0214 4.73942 21.0204 5.31215 20.984 5.69477C20.7069 8.60577 19.5081 15.67 18.8982 18.9304C18.6402 20.3099 18.132 20.7725 17.6401 20.8178C16.571 20.9162 15.7592 20.1113 14.7238 19.4325C13.1035 18.3704 12.1881 17.7092 10.6153 16.6728C8.79774 15.475 9.97602 14.8167 11.0119 13.7408C11.283 13.4592 15.9934 9.17477 16.0845 8.7861C16.0959 8.7375 16.1065 8.5563 15.9989 8.46063C15.8912 8.36495 15.7323 8.39767 15.6177 8.42369C15.4552 8.46057 12.8668 10.1714 7.85241 13.5563C7.1177 14.0608 6.45221 14.3066 5.85596 14.2937C5.19864 14.2795 3.93423 13.922 2.99426 13.6165C1.84136 13.2417 0.925054 13.0436 1.00484 12.4071C1.0464 12.0756 1.50292 11.7366 2.3744 11.39Z" fill="white"/>
</svg>
