<svg width="230" height="64" viewBox="0 0 230 64" fill="none" xmlns="http://www.w3.org/2000/svg">
<path d="M35.6627 18.8348L51.0843 0H71.3253L45.3012 30.6547L71.3253 62.4625H53.0121L35.6627 41.994L18.3133 62.4625H0L26.0241 30.6547L0 0H20.241L35.6627 18.8348Z" fill="white"/>
<path d="M92.5602 0V62.4625H77.1386V0H92.5602Z" fill="white"/>
<path d="M109.643 64C106.237 64 103.346 62.8148 100.968 60.4444C98.5909 58.0741 97.4021 55.1912 97.4021 51.7958C97.4021 49.5536 97.9483 47.5035 99.0407 45.6456C100.133 43.7878 101.611 42.3143 103.474 41.2252C105.338 40.0721 107.394 39.4955 109.643 39.4955C111.828 39.4955 113.852 40.0721 115.715 41.2252C117.643 42.3143 119.153 43.8198 120.245 45.7417C121.402 47.5996 121.98 49.6176 121.98 51.7958C121.98 54.038 121.402 56.0881 120.245 57.9459C119.153 59.8038 117.675 61.2773 115.812 62.3664C113.948 63.4555 111.892 64 109.643 64Z" fill="white"/>
<path d="M142.263 0V62.4625H126.841V0H142.263Z" fill="white"/>
<path d="M151.928 62.4625V0H194.819C205.743 0 214.321 2.65866 220.554 7.97598C226.851 13.2292 230 20.981 230 31.2312C230 41.4815 226.851 49.2653 220.554 54.5826C214.321 59.8358 205.743 62.4625 194.819 62.4625H151.928ZM194.819 48.048C200.345 48.048 204.458 47.6316 207.157 46.7988C209.92 45.9019 211.847 44.3003 212.94 41.994C214.032 39.6236 214.578 36.036 214.578 31.2312C214.578 26.4264 214.032 22.8709 212.94 20.5646C211.847 18.1942 209.92 16.5926 207.157 15.7598C204.458 14.8629 200.345 14.4144 194.819 14.4144H167.349V48.048H194.819Z" fill="white"/>
<path d="M109.643 64C106.237 64 103.346 62.8148 100.968 60.4444C98.5908 58.0741 97.4021 55.1912 97.4021 51.7958C97.4021 49.5535 97.9483 47.5035 99.0406 45.6456C100.133 43.7878 101.611 42.3143 103.474 41.2252C105.338 40.0721 107.394 39.4955 109.643 39.4955C111.828 39.4955 113.852 40.0721 115.715 41.2252C117.643 42.3143 119.153 43.8198 120.245 45.7417C121.402 47.5996 121.98 49.6176 121.98 51.7958C121.98 54.038 121.402 56.0881 120.245 57.9459C119.153 59.8038 117.675 61.2773 115.812 62.3664C113.948 63.4554 111.892 64 109.643 64Z" fill="#445AFF"/>
</svg>
