<svg width="123" height="65" viewBox="0 0 123 65" fill="none" xmlns="http://www.w3.org/2000/svg">
<path d="M35.8285 19.2349L51.2527 0.400024H71.4969L45.4686 31.0547L71.4969 62.8625H53.1807L35.8285 42.394L18.4763 62.8625H0.160156L26.1884 31.0547L0.160156 0.400024H20.4044L35.8285 19.2349Z" fill="white"/>
<path d="M92.7352 0.400024V62.8625H77.3111V0.400024H92.7352Z" fill="white"/>
<path d="M109.821 64.4C106.415 64.4 103.523 63.2148 101.145 60.8445C98.7668 58.4741 97.5779 55.5912 97.5779 52.1958C97.5779 49.9536 98.1242 47.9035 99.2167 46.0457C100.309 44.1878 101.787 42.7143 103.651 41.6252C105.515 40.4721 107.571 39.8955 109.821 39.8955C112.006 39.8955 114.03 40.4721 115.894 41.6252C117.822 42.7143 119.332 44.2198 120.425 46.1418C121.582 47.9996 122.16 50.0176 122.16 52.1958C122.16 54.4381 121.582 56.4881 120.425 58.346C119.332 60.2038 117.854 61.6773 115.99 62.7664C114.127 63.8555 112.07 64.4 109.821 64.4Z" fill="#445AFF"/>
</svg>
