<svg width="135" height="16" viewBox="0 0 135 16" fill="none" xmlns="http://www.w3.org/2000/svg">
<path d="M8.69015 4.97361L12.448 0.375366H17.3803L11.0388 7.85924L17.3803 15.6246H12.9178L8.69015 10.6276L4.46251 15.6246H0L6.34146 7.85924L0 0.375366H4.93224L8.69015 4.97361Z" fill="#101010"/>
<path d="M22.5547 0.375366V15.6246H18.7968V0.375366H22.5547Z" fill="#101010"/>
<path d="M40.6461 0.375366V3.89443H28.6678V6.35777H39.002V9.64223H28.6678V12.1056H40.6461V15.6246H24.9099V0.375366H40.6461Z" fill="#101010"/>
<path d="M58.0273 0.375366V3.89443H46.7536V6.35777H55.9135V9.64223H46.7536V15.6246H42.9957V0.375366H58.0273Z" fill="#101010"/>
<path d="M75.4021 0.375366V3.89443H64.1283V6.35777H73.2882V9.64223H64.1283V15.6246H60.3705V0.375366H75.4021Z" fill="#101010"/>
<path d="M93.4814 0.375366V3.89443H81.5031V6.35777H91.8374V9.64223H81.5031V12.1056H93.4814V15.6246H77.7452V0.375366H93.4814Z" fill="#101010"/>
<path d="M104.403 16C102.649 16 101.068 15.6872 99.6585 15.0616C98.2649 14.436 97.1611 13.521 96.3468 12.3167C95.5326 11.0968 95.1255 9.65787 95.1255 8C95.1255 6.34213 95.5326 4.91105 96.3468 3.70674C97.1611 2.4868 98.2649 1.56403 99.6585 0.938416C101.068 0.312805 102.649 0 104.403 0C106.517 0 108.38 0.445748 109.993 1.33724C111.621 2.2131 112.702 3.44086 113.234 5.02053L109.664 5.65396C109.492 5.10655 109.21 4.68426 108.818 4.3871C108.443 4.07429 107.902 3.85533 107.198 3.7302C106.509 3.58944 105.577 3.51906 104.403 3.51906C102.493 3.51906 101.091 3.87879 100.199 4.59824C99.3219 5.30205 98.8834 6.43597 98.8834 8C98.8834 9.56403 99.3219 10.7058 100.199 11.4252C101.091 12.129 102.493 12.4809 104.403 12.4809C105.577 12.4809 106.509 12.4184 107.198 12.2933C107.902 12.1525 108.443 11.9335 108.818 11.6364C109.21 11.3236 109.492 10.8935 109.664 10.346L113.234 10.9795C112.702 12.5591 111.621 13.7947 109.993 14.6862C108.38 15.5621 106.517 16 104.403 16Z" fill="#101010"/>
<path d="M130.615 3.89443H124.157V15.6246H120.399V3.89443H113.94V0.375366H130.615V3.89443Z" fill="#101010"/>
<path d="M131.494 16C130.664 16 129.959 15.7107 129.38 15.132C128.801 14.5533 128.511 13.8495 128.511 13.0205C128.511 12.4731 128.644 11.9726 128.91 11.5191C129.176 11.0655 129.536 10.7058 129.991 10.4399C130.445 10.1584 130.946 10.0176 131.494 10.0176C132.026 10.0176 132.519 10.1584 132.973 10.4399C133.443 10.7058 133.811 11.0733 134.077 11.5425C134.359 11.9961 134.5 12.4888 134.5 13.0205C134.5 13.5679 134.359 14.0684 134.077 14.522C133.811 14.9756 133.451 15.3353 132.997 15.6012C132.543 15.8671 132.042 16 131.494 16Z" fill="#445AFF"/>
</svg>
