<svg width="538" height="64" viewBox="0 0 538 64" fill="none" xmlns="http://www.w3.org/2000/svg">
<path d="M34.7606 19.8944L49.7922 1.50146H69.5212L44.1553 31.4369L69.5212 62.4985H51.6711L34.7606 42.5103L17.85 62.4985H0L25.3658 31.4369L0 1.50146H19.729L34.7606 19.8944Z" fill="white"/>
<path d="M90.219 1.50146V62.4985H75.1874V1.50146H90.219Z" fill="white"/>
<path d="M162.584 1.50146V15.5777H114.671V25.4311H156.008V38.5689H114.671V48.4223H162.584V62.4985H99.6394V1.50146H162.584Z" fill="white"/>
<path d="M232.109 1.50146V15.5777H187.014V25.4311H223.654V38.5689H187.014V62.4985H171.983V1.50146H232.109Z" fill="white"/>
<path d="M301.608 1.50146V15.5777H256.513V25.4311H293.153V38.5689H256.513V62.4985H241.482V1.50146H301.608Z" fill="white"/>
<path d="M373.926 1.50146V15.5777H326.013V25.4311H367.349V38.5689H326.013V48.4223H373.926V62.4985H310.981V1.50146H373.926Z" fill="white"/>
<path d="M417.611 64C410.597 64 404.271 62.7488 398.634 60.2463C393.06 57.7439 388.644 54.0841 385.387 49.2669C382.131 44.3871 380.502 38.6315 380.502 32C380.502 25.3685 382.131 19.6442 385.387 14.827C388.644 9.94721 393.06 6.25611 398.634 3.75366C404.271 1.25122 410.597 0 417.611 0C426.067 0 433.52 1.78299 439.971 5.34897C446.485 8.85239 450.806 13.7634 452.936 20.0821L438.656 22.6158C437.967 20.4262 436.839 18.737 435.274 17.5484C433.77 16.2972 431.61 15.4213 428.791 14.9208C426.035 14.3578 422.309 14.0762 417.611 14.0762C409.97 14.0762 404.365 15.5152 400.795 18.393C397.287 21.2082 395.534 25.7439 395.534 32C395.534 38.2561 397.287 42.8231 400.795 45.7009C404.365 48.5161 409.97 49.9238 417.611 49.9238C422.309 49.9238 426.035 49.6735 428.791 49.173C431.61 48.61 433.77 47.7341 435.274 46.5455C436.839 45.2942 437.967 43.5738 438.656 41.3842L452.936 43.9179C450.806 50.2366 446.485 55.1789 439.971 58.7449C433.52 62.2483 426.067 64 417.611 64Z" fill="white"/>
<path d="M522.462 15.5777H496.626V62.4985H481.595V15.5777H455.759V1.50146H522.462V15.5777Z" fill="white"/>
<path d="M525.975 64C522.655 64 519.837 62.8426 517.519 60.5279C515.202 58.2131 514.043 55.3979 514.043 52.0821C514.043 49.8925 514.576 47.8905 515.641 46.0762C516.705 44.262 518.146 42.8231 519.962 41.7595C521.778 40.6334 523.783 40.0704 525.975 40.0704C528.104 40.0704 530.077 40.6334 531.893 41.7595C533.772 42.8231 535.244 44.2933 536.309 46.1701C537.436 47.9844 538 49.955 538 52.0821C538 54.2718 537.436 56.2737 536.309 58.088C535.244 59.9022 533.804 61.3412 531.987 62.4047C530.171 63.4682 528.167 64 525.975 64Z" fill="#445AFF"/>
</svg>
