<svg width="122" height="64" viewBox="0 0 122 64" fill="none" xmlns="http://www.w3.org/2000/svg">
<path d="M35.6684 18.8348L51.0925 0H71.3367L45.3085 30.6547L71.3367 62.4625H53.0206L35.6684 41.994L18.3162 62.4625H0L26.0283 30.6547L0 0H20.2442L35.6684 18.8348Z" fill="#101010"/>
<path d="M92.5751 0V62.4625H77.1509V0H92.5751Z" fill="#101010"/>
<path d="M109.661 64C106.254 64 103.362 62.8148 100.985 60.4444C98.6067 58.0741 97.4177 55.1912 97.4177 51.7958C97.4177 49.5536 97.964 47.5035 99.0565 45.6456C100.149 43.7878 101.627 42.3143 103.491 41.2252C105.355 40.0721 107.411 39.4955 109.661 39.4955C111.846 39.4955 113.87 40.0721 115.734 41.2252C117.662 42.3143 119.172 43.8198 120.265 45.7417C121.422 47.5996 122 49.6176 122 51.7958C122 54.038 121.422 56.0881 120.265 57.9459C119.172 59.8038 117.694 61.2773 115.83 62.3664C113.967 63.4555 111.91 64 109.661 64Z" fill="#445AFF"/>
</svg>
