<?xml version="1.0" standalone="no"?>
<!DOCTYPE svg PUBLIC "-//W3C//DTD SVG 20010904//EN"
 "http://www.w3.org/TR/2001/REC-SVG-20010904/DTD/svg10.dtd">
<svg version="1.0" xmlns="http://www.w3.org/2000/svg"
 width="700.000000pt" height="700.000000pt" viewBox="0 0 700.000000 700.000000"
 preserveAspectRatio="xMidYMid meet">
<metadata>
Created by potrace 1.14, written by Peter Selinger 2001-2017
</metadata>
<g transform="translate(0.000000,700.000000) scale(0.100000,-0.100000)"
fill="#000000" stroke="none">
<path d="M107 5280 l-38 -5 42 -50 c22 -27 53 -64 67 -80 15 -17 61 -71 102
-120 41 -49 87 -103 101 -120 15 -16 84 -97 154 -180 70 -82 137 -161 148
-175 12 -14 47 -54 77 -90 30 -36 65 -76 77 -90 26 -31 333 -392 537 -633 83
-98 152 -182 154 -185 1 -4 -97 -129 -219 -277 -122 -149 -235 -287 -253 -309
-17 -21 -35 -43 -41 -50 -5 -6 -28 -34 -50 -61 -41 -51 -72 -89 -90 -109 -6
-6 -46 -56 -90 -111 -44 -55 -82 -102 -85 -105 -3 -3 -66 -79 -140 -170 -153
-187 -147 -180 -226 -276 -33 -39 -72 -88 -89 -109 -16 -21 -35 -43 -40 -49
-22 -23 -135 -165 -135 -169 0 -3 231 -4 514 -4 l515 0 198 235 c109 129 207
244 218 257 11 12 63 73 115 135 52 62 100 118 105 124 6 6 32 38 60 71 27 33
54 65 60 71 5 6 30 35 55 64 25 29 73 86 107 126 l61 73 119 -141 c65 -77 123
-146 128 -152 25 -29 127 -148 181 -212 125 -149 431 -510 445 -524 8 -8 35
-40 61 -71 l47 -57 516 1 c473 0 514 1 503 16 -11 14 -125 154 -153 188 -5 7
-15 18 -20 25 -80 99 -149 184 -154 188 -5 4 -134 162 -188 230 -6 8 -47 58
-90 110 -43 52 -107 131 -143 175 -36 44 -74 91 -86 105 -12 14 -73 88 -136
165 -62 77 -196 240 -296 363 -100 122 -182 226 -182 230 0 5 32 46 71 93 39
46 90 106 113 133 62 74 282 334 335 395 52 60 60 69 117 137 88 104 237 280
257 304 12 14 47 54 77 90 30 36 65 76 77 90 12 14 51 61 88 105 62 73 118
139 175 205 11 14 29 34 38 45 9 12 39 46 65 78 27 31 43 57 35 58 -129 5
-1133 -3 -1137 -9 -10 -15 -797 -975 -833 -1015 l-33 -38 -92 113 c-50 62 -99
123 -110 134 -10 12 -83 102 -163 200 -79 99 -147 181 -150 184 -3 3 -44 52
-90 110 -46 58 -87 107 -90 110 -3 3 -43 51 -89 108 -46 56 -86 102 -90 102
-53 4 -1067 4 -1094 0z"/>
<path d="M4477 5282 l-57 -3 0 -1764 0 -1763 435 0 435 0 1 36 c3 235 0 3485
-4 3488 -6 6 -714 11 -810 6z"/>
<path d="M6126 3038 c-175 -38 -344 -152 -440 -297 -84 -126 -118 -238 -118
-386 1 -103 4 -128 32 -216 60 -194 246 -379 441 -440 220 -68 468 -26 639
109 175 138 273 336 273 547 -2 377 -325 696 -703 692 -47 0 -103 -4 -124 -9z"/>
</g>
</svg>
